PathFileType	4	(X/Y/Z)	C:/Users/opensim2020/Desktop/walking_exp_matlab/subject06_walking17_straight_02.trc																																																																																																																																					
DataRate	CameraRate	NumFrames	NumMarkers	Units	OrigDataRate	OrigDataStartFrame	OrigNumFrames																																																																																																																																	
100	100	5	45	mm	100	2407	334																																																																																																																																	
Frame#	Time	LFHD			RFHD			LBHD			RBHD			C7			T10			CLAV			STRN			RBAK			LSHO			LUPA			LELB			LFRM			LWRA			LWRB			LFIN			RSHO			RUPA			RELB			RFRM			RWRA			RWRB			RFIN			LASI			RASI			LPSI			RPSI			LTHI			LKNE			LTIB			LANK			LHEE			LTOE			RTHI			RKNE			RTIB			RANK			RHEE			RTOE			*39			*40			*41			*42			*43			*44		
		X1	Y1	Z1	X2	Y2	Z2	X3	Y3	Z3	X4	Y4	Z4	X5	Y5	Z5	X6	Y6	Z6	X7	Y7	Z7	X8	Y8	Z8	X9	Y9	Z9	X10	Y10	Z10	X11	Y11	Z11	X12	Y12	Z12	X13	Y13	Z13	X14	Y14	Z14	X15	Y15	Z15	X16	Y16	Z16	X17	Y17	Z17	X18	Y18	Z18	X19	Y19	Z19	X20	Y20	Z20	X21	Y21	Z21	X22	Y22	Z22	X23	Y23	Z23	X24	Y24	Z24	X25	Y25	Z25	X26	Y26	Z26	X27	Y27	Z27	X28	Y28	Z28	X29	Y29	Z29	X30	Y30	Z30	X31	Y31	Z31	X32	Y32	Z32	X33	Y33	Z33	X34	Y34	Z34	X35	Y35	Z35	X36	Y36	Z36	X37	Y37	Z37	X38	Y38	Z38	X39	Y39	Z39	X40	Y40	Z40	X41	Y41	Z41	X42	Y42	Z42	X43	Y43	Z43	X44	Y44	Z44	X45	Y45	Z45
																																																																																																																																								
251	2.5	383.93085	1664.35742	-1473.47986	379.35898	1650.58887	-1341.78369	250.26614	1610.13916	-1479.052	247.53922	1601.99988	-1350.01001	248.31709	1452.00903	-1415.42371	207.18095	1124.15845	-1402.81177	355.92911	1373.32336	-1420.56836	392.2045	1197.03711	-1424.84363	181.73227	1286.08643	-1321.25366	291.33218	1401.6792	-1579.2627	261.03146	1200.63525	-1648.15552	241.6936	1089.87134	-1658.27673	253.80984	940.11127	-1680.17554	312.14084	823.54584	-1644.28455	245.07707	820.17432	-1669.70007	281.42203	737.21838	-1675.23962	330.01852	1410.94373	-1258.46936	318.83975	1215.1333	-1158.58826	341.17645	1095.86169	-1141.12903	374.15326	980.75836	-1120.79333	447.80145	849.12598	-1153.50256	399.38455	845.85327	-1106.84705	447.43475	777.38953	-1104.25977	386.06918	963.32971	-1514.57324	382.99606	966.1861	-1294.50366	226.88983	988.38818	-1488.59766	232.45436	995.73926	-1320.32263	378.32465	655.0274	-1585.5083	438.77344	504.12518	-1558.67456	449.27014	251.13179	-1561.84412	479.94748	79.01817	-1530.2644	441.19357	58.79314	-1485.70984	626.16974	62.11881	-1518.57434	296.68179	632.2204	-1255.83167	280.77338	507.27045	-1280.66541	188.78276	253.78899	-1298.99854	148.09442	74.84249	-1359.70447	108.88316	54.34216	-1408.17725	298.28516	36.46329	-1350.8335	281.65964	1701.3446	-1416.48047	NaN	NaN	NaN	NaN	NaN	NaN	NaN	NaN	NaN	NaN	NaN	NaN	NaN	NaN	NaN
252	2.51	390.1543	1663.43274	-1473.84045	385.81909	1649.63586	-1342.09192	256.46735	1609.1239	-1479.06714	253.95187	1601.0614	-1350.04614	254.6647	1450.98633	-1415.30798	213.6673	1123.06409	-1403.04785	362.34445	1372.30457	-1420.85913	398.63708	1196.09521	-1425.36963	188.39613	1284.92102	-1321.06641	297.19101	1400.67212	-1579.35547	266.14072	1199.76599	-1648.13696	246.20845	1089.08899	-1658.14038	257.53317	939.26172	-1680.09375	315.25439	822.45343	-1644.11865	248.49466	819.17554	-1669.5332	284.02899	736.19763	-1675.13135	336.83109	1409.76648	-1258.6582	325.86139	1213.93005	-1158.76208	348.04187	1094.66467	-1141.25684	381.00159	979.5481	-1121.05469	454.51431	847.8606	-1153.97937	406.31528	844.62073	-1107.12048	454.19717	776.11438	-1104.67554	392.89355	962.32703	-1514.7345	389.39084	965.28705	-1294.75671	233.71104	987.41376	-1489.04138	238.86781	994.75397	-1320.71851	384.85822	653.95923	-1586.03296	445.15057	503.2774	-1558.87671	462.92447	250.58698	-1561.46423	499.01831	79.46862	-1529.49109	461.13211	57.85859	-1485.19312	645.95044	66.21393	-1516.58655	301.91373	631.4209	-1255.99609	285.34528	506.5415	-1280.73474	190.91672	253.76169	-1299.10107	148.41306	75.22878	-1359.83167	108.83064	54.92482	-1407.96509	298.29025	36.41837	-1350.82458	288.00208	1700.38391	-1416.59485	NaN	NaN	NaN	NaN	NaN	NaN	NaN	NaN	NaN	NaN	NaN	NaN	NaN	NaN	NaN
253	2.52	396.40646	1662.37952	-1474.13696	392.37393	1648.66138	-1342.42261	262.71143	1608.08435	-1479.0874	260.48502	1599.99805	-1349.99939	261.16412	1449.87085	-1415.2218	220.20256	1121.95251	-1403.4397	368.84689	1371.26294	-1421.16052	405.15851	1195.10608	-1425.9126	195.09741	1283.73438	-1320.96228	303.03549	1399.66821	-1579.49915	271.24045	1198.86792	-1648.099	250.80824	1088.25293	-1658.07666	261.41821	938.33972	-1680.00464	318.51929	821.10663	-1644.00317	251.68732	818.41766	-1669.92212	286.9086	735.06445	-1675.00427	343.75266	1408.49817	-1258.8573	332.77097	1212.62561	-1158.99487	354.94742	1093.3501	-1141.49536	387.82578	978.15497	-1121.42834	461.38644	846.565	-1154.65332	413.1019	843.27881	-1107.52136	460.92123	774.67767	-1105.22437	399.73535	961.30365	-1514.92004	395.79651	964.35834	-1295.06763	240.57776	986.40753	-1489.67749	245.25063	993.69464	-1321.29907	391.87131	653.03754	-1586.48706	451.51166	502.33295	-1558.95349	475.83261	250.03191	-1561.07654	517.33832	80.14926	-1528.45447	479.65552	57.48463	-1484.22522	664.62585	70.92278	-1514.96265	307.20419	630.52454	-1256.2843	290.11725	505.66678	-1280.95544	193.1899	253.69038	-1299.33411	148.7606	75.67114	-1359.93933	109.25052	55.45371	-1408.34949	298.34979	36.3487	-1350.83276	294.30542	1699.34827	-1416.66077	NaN	NaN	NaN	NaN	NaN	NaN	NaN	NaN	NaN	NaN	NaN	NaN	NaN	NaN	NaN
254	2.53	402.68884	1661.3407	-1474.51257	398.95093	1647.646	-1342.70093	269.0224	1606.99304	-1479.11475	267.06454	1598.91467	-1350.06592	267.62869	1448.81274	-1415.29968	226.80841	1120.81531	-1403.88623	375.44287	1370.18176	-1421.58313	411.71875	1194.03503	-1426.47339	201.85547	1282.51135	-1320.92041	308.98312	1398.62244	-1579.68066	276.36832	1197.9563	-1648.10083	255.5237	1087.41089	-1658.04358	265.53033	937.45282	-1680.03015	322.2684	820.02106	-1643.95557	255.37001	817.76868	-1669.99231	290.09476	733.99231	-1674.88525	350.7171	1407.16492	-1259.09741	339.68369	1211.25171	-1159.22339	361.74628	1091.9502	-1141.77954	394.55554	976.73517	-1121.91382	467.89316	845.03632	-1155.31726	419.79645	841.80542	-1108.1499	467.53433	773.19324	-1105.9364	406.57227	960.20038	-1515.16272	402.22043	963.34125	-1295.44849	247.44997	985.38342	-1490.39856	251.69127	992.61652	-1322.02869	399.21399	652.11108	-1586.95129	457.99713	501.36929	-1558.96631	488.07391	249.48514	-1560.68823	534.31702	80.78039	-1527.52002	498.03317	56.95331	-1483.28687	682.01611	75.85325	-1513.77734	312.71869	629.61865	-1256.56177	295.14847	504.7579	-1281.24683	195.66019	253.63573	-1299.57568	149.15092	76.12044	-1360.03516	109.21947	56.22168	-1408.23962	298.41492	36.27265	-1350.86938	300.71722	1698.24146	-1416.78137	NaN	NaN	NaN	NaN	NaN	NaN	NaN	NaN	NaN	NaN	NaN	NaN	NaN	NaN	NaN
255	2.54	409.01846	1660.26306	-1474.81934	405.52191	1646.55908	-1343.05286	275.30826	1605.85132	-1479.14429	273.70319	1597.75085	-1350.09314	274.37207	1447.57495	-1415.29785	233.43082	1119.63452	-1404.45752	382.10074	1369.13953	-1422.03174	418.40567	1192.93896	-1427.09546	208.64899	1281.29163	-1320.96021	315.05338	1397.49915	-1579.81909	281.5585	1197.07471	-1648.21423	260.43524	1086.53308	-1658.01465	269.76697	936.54053	-1679.9801	326.20074	818.82758	-1644.04529	259.36368	816.77606	-1670.02771	293.5864	732.94562	-1674.87256	357.73502	1405.80249	-1259.41296	346.58447	1209.81067	-1159.61438	368.50342	1090.47144	-1142.23669	401.31073	975.24927	-1122.49487	474.44016	843.55658	-1156.13794	426.38126	840.33386	-1108.8595	474.14557	771.69836	-1106.84973	413.48587	959.0874	-1515.44348	408.72318	962.26801	-1295.8584	254.35873	984.3573	-1491.28149	258.10245	991.50305	-1322.82251	406.71185	651.11066	-1587.27148	464.5191	500.37613	-1558.91797	499.78476	248.89919	-1560.26514	550.46814	81.54013	-1526.53113	514.64594	56.93311	-1481.98865	698.37891	80.59653	-1513.09692	318.19141	628.76147	-1256.99097	300.19202	503.94675	-1281.6532	198.15883	253.59377	-1299.90649	149.57332	76.65417	-1360.19812	109.48824	56.96851	-1408.40222	298.49881	36.25588	-1350.88782	307.04535	1697.13538	-1416.89795	NaN	NaN	NaN	NaN	NaN	NaN	NaN	NaN	NaN	NaN	NaN	NaN	NaN	NaN	NaN
